<svg width="30" height="31" viewBox="0 0 30 31" fill="none" xmlns="http://www.w3.org/2000/svg">
<g id="apple">
<path id="Vector" d="M23.3876 25.1494C22.3501 26.6994 21.2501 28.2119 19.5751 28.2369C17.9001 28.2744 17.3626 27.2494 15.4626 27.2494C13.5501 27.2494 12.9626 28.2119 11.3751 28.2744C9.73755 28.3369 8.50005 26.6244 7.45005 25.1119C5.31255 22.0244 3.67505 16.3369 5.87505 12.5119C6.96255 10.6119 8.91255 9.41191 11.0251 9.37441C12.6251 9.34941 14.1501 10.4619 15.1376 10.4619C16.1126 10.4619 17.9626 9.12441 19.9001 9.32441C20.7126 9.36191 22.9876 9.64941 24.4501 11.7994C24.3376 11.8744 21.7376 13.3994 21.7626 16.5619C21.8001 20.3369 25.0751 21.5994 25.1126 21.6119C25.0751 21.6994 24.5876 23.4119 23.3876 25.1494ZM16.2501 5.14941C17.1626 4.11191 18.6751 3.32441 19.9251 3.27441C20.0876 4.73691 19.5001 6.21191 18.6251 7.26191C17.7626 8.32441 16.3376 9.14941 14.9376 9.03691C14.7501 7.59941 15.4501 6.09941 16.2501 5.14941Z" fill="black"/>
</g>
</svg>
